<?xml version="1.0" encoding="utf-8"?>
<!-- Generator: Adobe Illustrator 16.0.0, SVG Export Plug-In . SVG Version: 6.00 Build 0)  -->
<!DOCTYPE svg PUBLIC "-//W3C//DTD SVG 1.1//EN" "http://www.w3.org/Graphics/SVG/1.1/DTD/svg11.dtd">
<svg version="1.1" id="图层_1" xmlns="http://www.w3.org/2000/svg" xmlns:xlink="http://www.w3.org/1999/xlink" x="0px" y="0px"
	 width="595.28px" height="595.28px" viewBox="0 0 595.28 595.28" enable-background="new 0 0 595.28 595.28" xml:space="preserve">
<g>
	<defs>
		<rect id="SVGID_1_" x="9.033" y="140.191" width="577.17" height="315.496"/>
	</defs>
	<clipPath id="SVGID_2_">
		<use xlink:href="#SVGID_1_"  overflow="visible"/>
	</clipPath>
	<path clip-path="url(#SVGID_2_)" fill="#CB2427" d="M478.845,344.801c-5.458,5.458-14.277,5.458-19.735,0
		c-5.258-5.258-9.884-9.884-9.884-9.884l14.942-14.976l-18.786-18.745l-14.942,14.951l-14.942-14.951l-18.786,18.745l14.959,14.976
		c0,0-4.659,4.626-9.884,9.884c-5.458,5.458-14.326,5.458-19.768,0s-5.441-14.311,0-19.768c5.74-5.725,48.222-48.613,48.222-48.613
		s42.88,42.889,48.604,48.613C484.303,330.49,484.303,339.343,478.845,344.801 M382.019,190.626c-5.441-5.458-5.441-14.31,0-19.768
		c5.441-5.441,14.31-5.441,19.768,0c5.225,5.258,9.884,9.884,9.884,9.884l-14.959,14.942l18.786,18.786l14.942-14.942l14.942,14.942
		l18.786-18.786l-14.942-14.942c0,0,4.626-4.626,9.884-9.884c5.458-5.441,14.277-5.441,19.735,0c5.458,5.458,5.458,14.31,0,19.768
		c-5.725,5.724-48.604,48.621-48.604,48.621S387.759,196.35,382.019,190.626 M449.226,257.817c0,0,44.028-44.012,48.405-48.405
		c15.841-15.841,15.841-41.499,0-57.34c-15.791-15.824-41.482-15.824-57.307,0c-6.207,6.207-9.885,9.884-9.885,9.884
		s-3.677-3.677-9.867-9.884c-15.857-15.824-41.516-15.824-57.34,0c-15.841,15.841-15.841,41.499,0,57.34
		c4.409,4.393,48.438,48.405,48.438,48.405s-44.028,44.045-48.438,48.438c-15.841,15.816-15.841,41.475,0,57.315
		c15.824,15.841,41.482,15.841,57.34,0c6.19-6.19,9.867-9.884,9.867-9.884s3.678,3.693,9.885,9.884
		c15.824,15.841,41.516,15.841,57.307,0c15.841-15.841,15.841-41.499,0-57.315C493.254,301.862,449.226,257.817,449.226,257.817
		 M555.553,267.701c-5.457,5.441-14.31,5.441-19.768,0c-4.426-4.442-9.884-9.884-9.884-9.884s5.458-5.424,9.884-9.867
		c5.458-5.458,14.311-5.458,19.768,0c2.713,2.729,4.094,6.29,4.094,9.867C559.646,261.411,558.266,264.989,555.553,267.701
		 M574.355,229.147c-15.841-15.824-41.532-15.824-57.373,0l-9.867,9.884l-14.942-14.926l-18.786,18.786l14.959,14.926
		l-14.959,14.959l18.786,18.77l14.942-14.942c0,0,5.341,5.341,9.867,9.884c15.841,15.825,41.532,15.825,57.373,0
		c7.888-7.904,11.848-18.287,11.848-28.67C586.203,247.451,582.243,237.084,574.355,229.147 M324.695,267.701
		c-5.467,5.441-14.311,5.441-19.776,0c-2.713-2.712-4.077-6.29-4.077-9.884c0-3.578,1.364-7.138,4.077-9.867
		c5.466-5.458,14.31-5.458,19.776,0l9.867,9.867C334.563,257.817,329.121,263.258,324.695,267.701 M368.291,291.545l18.786-18.77
		l-14.942-14.959l14.942-14.926l-18.786-18.786l-14.942,14.926l-9.851-9.884c-15.841-15.824-41.533-15.824-57.357,0
		c-7.904,7.937-11.881,18.304-11.881,28.67c0,10.383,3.977,20.766,11.881,28.67c15.824,15.825,41.516,15.825,57.357,0
		c4.525-4.542,9.851-9.884,9.851-9.884L368.291,291.545"/>
	<path clip-path="url(#SVGID_2_)" fill="#040000" d="M214.782,376.149c-2.487,2.629-5.757,3.86-9.734,3.86
		c-3.744,0-6.864-1.331-9.335-3.993c-2.421-2.695-3.611-6.123-3.611-10.416c0-3.928,1.207-7.289,3.694-10.018
		c2.488-2.662,5.591-3.96,9.327-3.96c3.985,0,7.172,1.298,9.659,3.96c2.455,2.662,3.678,6.123,3.678,10.25
		C218.459,370.026,217.236,373.454,214.782,376.149 M217.827,343.437v5.225c-4.327-4.26-9.21-6.39-14.701-6.39
		c-6.323,0-11.59,2.263-15.791,6.655c-4.21,4.46-6.307,10.084-6.307,16.773c0,6.722,2.097,12.446,6.307,16.973
		c4.26,4.492,9.593,6.688,16.099,6.688c5.183,0,9.951-1.963,14.394-5.99v4.692h10.94v-44.627H217.827"/>
	<path clip-path="url(#SVGID_2_)" fill="#040000" d="M67.446,323.269h11.315v25.326c0,0,4.243-5.857,13.037-5.857
		c8.145,0,15.558,5.458,15.558,19.069v26.523H97.032v-27.256c0-4.692-1.88-10.616-8.569-10.616c-6.373,0-9.651,4.792-9.701,10.616
		v27.256H67.446V323.269"/>
	<path clip-path="url(#SVGID_2_)" fill="#040000" d="M63.37,377.215c-2.504,3.561-5.657,6.39-9.518,8.619
		c-4.567,2.563-9.684,3.894-15.217,3.894c-8.178,0-15.15-2.896-20.924-8.619c-5.799-5.758-8.678-12.713-8.678-20.933
		c0-8.819,3.253-16.141,9.801-21.998c5.724-5.125,12.305-7.654,19.751-7.654c5.383,0,10.408,1.298,15.175,3.961
		c3.885,2.196,7.105,5.024,9.593,8.553l-9.709,6.955c-0.682-1.664-1.672-3.095-2.812-4.459c-3.236-3.728-7.346-5.592-12.372-5.592
		c-4.892,0-8.96,1.864-12.247,5.691c-3.236,3.761-4.859,8.586-4.859,14.477c0,6.123,1.598,10.981,4.842,14.775
		c3.187,3.728,7.255,5.624,12.213,5.624c4.942,0,9.027-1.896,12.322-5.724c1.206-1.364,2.18-2.896,2.912-4.56
		C53.644,370.226,60.865,375.418,63.37,377.215"/>
	<path clip-path="url(#SVGID_2_)" fill="#040000" d="M160.129,342.771c-10.766-0.166-14.277,5.824-14.277,5.824l-0.524-5.259h-9.734
		v44.928h11.265v-27.256c0.066-5.758,3.386-10.583,9.726-10.583c6.697,0,8.644,5.957,8.644,10.583v27.256h10.458v-26.457
		C175.687,348.129,168.241,342.804,160.129,342.771"/>
	<rect x="115.851" y="343.203" clip-path="url(#SVGID_2_)" fill="#CB2427" width="10.566" height="45.061"/>
	<path clip-path="url(#SVGID_2_)" fill="#CB2427" d="M121.059,338.61c-3.661,0-6.115-2.695-6.115-5.924
		c0-3.461,2.554-6.057,6.215-6.057c3.785,0,6.115,2.596,6.223,6.057c0,3.229-2.438,5.924-6.223,5.924H121.059"/>
	<path clip-path="url(#SVGID_2_)" fill="#CB2427" d="M121.059,404.97c-3.661,0-6.115-2.663-6.115-5.857
		c0-3.494,2.554-6.09,6.215-6.09c3.785,0,6.115,2.596,6.223,6.09c0,3.194-2.438,5.857-6.223,5.857H121.059"/>
	<path clip-path="url(#SVGID_2_)" fill="#040000" d="M281.149,409.329c-6.714-0.166-11.348,2.596-15.283,6.955
		c-2.654-4.825-7.055-6.855-11.689-6.955c-9.485-0.267-13.645,5.791-13.645,5.791l-0.375-5.458h-10.208v44.927h11.382v-27.123
		c0.033-5.757,3.053-10.482,8.927-10.482c6.115,0,7.887,5.891,7.887,10.55v27.056h10.309v-26.523v0.066
		c0.042-7.555,3.544-11.148,8.761-11.148c6.148,0,7.887,5.891,7.887,10.55v27.056h10.325v-26.324
		C295.426,414.688,288.579,409.495,281.149,409.329"/>
	<rect x="115.851" y="409.662" clip-path="url(#SVGID_2_)" fill="#CB2427" width="10.566" height="44.927"/>
	<path clip-path="url(#SVGID_2_)" fill="#040000" d="M201.953,416.484c-3.619,0-6.614,1.497-9.002,4.393
		c-2.388,2.929-3.611,6.689-3.611,11.281c0,4.659,1.19,8.486,3.578,11.382c2.371,2.896,5.333,4.359,8.977,4.359
		c3.669,0,6.647-1.464,9.052-4.393c2.438-2.962,3.594-6.756,3.594-11.349c0-4.625-1.156-8.386-3.527-11.314
		C208.642,417.981,205.647,416.484,201.953,416.484 M201.129,408.63c4.21,0,8.179,1.099,11.864,3.195
		c3.71,2.13,6.606,4.991,8.669,8.52c2.096,3.66,3.136,7.554,3.136,11.681c0,4.193-1.04,8.187-3.153,11.848
		c-2.08,3.66-4.942,6.522-8.536,8.553c-3.611,2.13-7.596,3.095-11.914,3.095c-6.439,0-11.889-2.229-16.423-6.789
		c-4.551-4.559-6.781-10.05-6.781-16.573c0-6.955,2.571-12.779,7.654-17.438C190.172,410.693,195.289,408.63,201.129,408.63"/>
	<path clip-path="url(#SVGID_2_)" fill="#040000" d="M91.798,409.063c-10.716-0.133-14.244,5.824-14.244,5.824l-0.541-5.225H67.28
		v44.927h11.315v-27.223c0.017-5.79,3.336-10.55,9.709-10.55c6.664,0,8.594,5.857,8.594,10.55v27.223h10.458v-26.424
		C107.356,414.487,99.943,409.196,91.798,409.063"/>
	<path clip-path="url(#SVGID_2_)" fill="#040000" d="M33.751,455.188c10.758,0.167,14.285-5.823,14.285-5.823l0.524,5.225h9.726
		v-44.927H47.013v27.223c-0.05,5.79-3.344,10.615-9.717,10.615c-6.698,0-9.335-5.924-9.335-10.615v-27.223H16.662v26.424
		C16.662,449.764,25.623,455.088,33.751,455.188"/>
	<path clip-path="url(#SVGID_2_)" fill="#040000" d="M177.168,445.77c-1.988,2.829-4.493,5.125-7.563,6.822
		c-3.627,2.097-7.688,3.062-12.081,3.062c-6.456,0-11.98-2.229-16.598-6.755c-4.584-4.593-6.847-10.117-6.847-16.673
		c0-6.89,2.587-12.713,7.788-17.372c4.518-4.061,9.709-6.09,15.641-6.09c4.243,0,8.245,1.031,12.014,3.161
		c3.079,1.73,5.641,3.993,7.613,6.756l-8.411,6.023c-0.533-1.198-1.215-2.329-2.063-3.295c-2.338-2.795-5.3-4.193-8.927-4.193
		c-3.561,0-6.481,1.465-8.86,4.193c-2.338,2.829-3.544,6.423-3.544,10.816c0,4.525,1.207,8.22,3.527,10.981
		c2.313,2.829,5.258,4.193,8.836,4.193c3.544,0,6.531-1.364,8.902-4.227c0.882-1.031,1.597-2.163,2.13-3.428L177.168,445.77"/>
	<path clip-path="url(#SVGID_2_)" fill="#040000" d="M510.177,410.693c-4.21-5.591-8.569-8.619-8.569-8.619l-4.227,3.028
		l7.105,9.751L510.177,410.693 M536.584,419.213h8.486v3.628h-8.486V419.213z M545.07,431.626h-8.486v-3.627h8.486V431.626z
		 M529.246,422.841h-8.503v-3.628h8.503V422.841z M529.246,431.626h-8.503v-3.627h8.503V431.626z M531.726,411.759
		c-3.462-2.396-7.372-4.193-7.372-4.193l-2.895,3.728l2.895,2.528h-10.948v32.281h2.263c2.296,0,5.059-1.53,5.059-4.858v-4.427h8.52
		v9.285h2.246c2.896,0,4.875-1.431,5.092-4.858v-4.427h8.486v2.163c0,1.065-1.165,1.765-2.13,1.765h-3.428l1.53,5.357h5.325
		c3.561,0,6.456-2.896,6.456-6.456v-21.398c0-2.43-1.964-4.427-4.409-4.427h-8.52l11.215-6.755v-6.224h-38.121v5.392h27.854
		L531.726,411.759 M512.456,448.632c-1.93,0-3.494-1.564-3.494-3.494V417.25h-12.113v5.391h4.026v24.627
		c0,4.193,3.694,6.723,6.523,6.723h46.258v-5.358H512.456"/>
	<path clip-path="url(#SVGID_2_)" fill="#040000" d="M480.675,430.86h9.285v-5.357h-10.417v-8.287h10.417v-5.357h-6.756l6.173-7.721
		l-5.84-4.193l-7.704,11.914h-5.524l4.476-3.262c-3.86-5.391-7.121-8.652-7.121-8.652l-4.294,2.529l5.508,9.385h-6.771v5.357h8.951
		v8.287h-8.951v5.357h7.953l-9.418,24.161h4.061c2.13,0,4.326-1.498,5.191-3.395l5.757-14.443l7.971,17.838h7.887L480.675,430.86
		 M451.04,426.801h-6.54v-6.623h6.54V426.801z M451.023,438.715l-6.523,1.863v-8.42h6.54L451.023,438.715 M462.354,435.553
		l-3.678,1.032v-30.151c0-3.328-1.979-5.391-4.492-5.391h-19.202v5.391h16.058v8.354h-6.54v-5.558h-7.288v33.379l-3.211,0.898v6.057
		l17.022-4.759v10.883h3.012c2.512,0,4.109-1.498,4.642-4.36v-8.686l3.678-0.998V435.553"/>
	<path clip-path="url(#SVGID_2_)" fill="#040000" d="M352.616,431.326c0,1.931-1.564,3.462-3.478,3.462h-10.832v-21.932h14.31
		V431.326 M355.978,407.466h-17.671v-7.521h-9.186v7.521h-11.522v5.391h11.522v21.932h-14.335v-27.322h-9.186v32.713h23.521v15.509
		h1.498c5.142-0.134,7.471-2.43,7.688-6.323v-9.186h15.541c4.293,0,7.754-3.361,7.954-7.621v-19.602
		C361.602,409.895,359.089,407.466,355.978,407.466"/>
	<path clip-path="url(#SVGID_2_)" fill="#040000" d="M414.116,438.049h-4.06l2.662-3.328c-3.628-3.294-6.356-5.058-6.356-5.058
		l-3.312,3.294l4.609,5.092h-6.224v-9.019H413.9v-5.357h-12.464v-6.689H413.9v-5.392h-32.265v5.392h11.315v6.689h-11.315v5.357
		h11.315v9.019h-11.549v5.392h32.714V438.049 M419.591,400.876h-38.188v5.358h35.543v39.036c0,1.931-1.564,3.494-3.494,3.494
		h-34.844v-47.889h-8.52v53.28h47.656c4.26,0,7.688-3.428,7.688-7.688V406.7C425.432,403.472,422.818,400.876,419.591,400.876"/>
</g>
</svg>
